# xmcd
#
# Track frame offsets:
#	150
#	12389
#	25189
#	36076
#	49440
#	68693
#	82053
#	91809
#	104204
#	115481
#	129105
#	143008
#	154667
#	165040
#	175132
#
# Disc length: 2503 seconds
#
# Revision: 2
# Processed by: cddbd v1.5.2PL0 Copyright (c) Steve Scherf et al.
# Submitted via: EasyCDDAExtractor 7.0.3.1
#
DISCID=bd09c50f
DTITLE=Various Artist - Golden Age of Country: Sing Me Back Home 1
DYEAR=1900
DGENRE=Country
TTITLE0=George Jones - A Girl I Used To Know
TTITLE1=Merle Haggard - Sing Me Back Home
TTITLE2=Del Reeves - Looking at the World Through a Window
TTITLE3=Sonny James - It's the Little Things
TTITLE4=Bobbie Gentry - Ode To Billie Joe
TTITLE5=Glen Campbell - Gentle On My Mind
TTITLE6=Hank Thompson - The New Green Light
TTITLE7=Leon Payne - I Love You Because
TTITLE8=Tommy Collins - It Tickles
TTITLE9=Merle Travis - So Round, So Firm, So Fully Packed
TTITLE10=Tennessee Ernie Ford - Mule Train
TTITLE11=Faron Young - Country Girl
TTITLE12=The Louvin Brothers - You're Running Wild
TTITLE13=Jean Shepard - Second Fiddle (To An Old Guitar)
TTITLE14=<<compilation disc>> - Secret Love
EXTD=
EXTT0=
EXTT1=
EXTT2=
EXTT3=
EXTT4=
EXTT5=
EXTT6=
EXTT7=
EXTT8=
EXTT9=
EXTT10=
EXTT11=
EXTT12=
EXTT13=
EXTT14=
PLAYORDER=
